<?xml version="1.0" standalone="no"?>
<!DOCTYPE svg PUBLIC "-//W3C//DTD SVG 1.1//EN" "http://www.w3.org/Graphics/SVG/1.1/DTD/svg11.dtd">
<svg width="509mm" height="109mm" viewBox="0 -109 509 109" xmlns="http://www.w3.org/2000/svg" version="1.1">
<title>OpenSCAD Model</title>
<path d="
M 502.003,-0.225649 L 503.905,-0.89128 L 505.611,-1.96352 L 507.036,-3.38859 L 508.109,-5.09505 L 508.774,-6.99731
 L 509,-9 L 509,-100 L 508.774,-102.003 L 508.109,-103.905 L 507.036,-105.611 L 505.611,-107.036
 L 503.905,-108.109 L 502.003,-108.774 L 500,-109 L 9,-109 L 6.99731,-108.774 L 5.09505,-108.109
 L 3.38859,-107.036 L 1.96352,-105.611 L 0.89128,-103.905 L 0.225649,-102.003 L 0,-100 L 0,-9
 L 0.225649,-6.99731 L 0.89128,-5.09505 L 1.96352,-3.38859 L 3.38859,-1.96352 L 5.09505,-0.89128 L 6.99731,-0.225649
 L 9,-0 L 500,-0 z
M 30,-78.8 L 30,-81.8 L 160,-81.8 L 160,-78.8 z
M 487.955,-44.5548 L 485.91,-44.9894 L 484,-45.8397 L 482.309,-47.0686 L 480.91,-48.6221 L 479.865,-50.4326
 L 479.219,-52.4209 L 479,-54.5 L 479.219,-56.5791 L 479.865,-58.5674 L 480.91,-60.3779 L 482.309,-61.9314
 L 484,-63.1603 L 485.91,-64.0106 L 487.955,-64.4452 L 490.045,-64.4452 L 492.09,-64.0106 L 494,-63.1603
 L 495.691,-61.9314 L 497.09,-60.3779 L 498.135,-58.5674 L 498.781,-56.5791 L 499,-54.5 L 498.781,-52.4209
 L 498.135,-50.4326 L 497.09,-48.6221 L 495.691,-47.0686 L 494,-45.8397 L 492.09,-44.9894 L 490.045,-44.5548
 z
" stroke="black" fill="lightgray" stroke-width="0.5"/>
</svg>
