<?xml version="1.0" standalone="no"?>
<!DOCTYPE svg PUBLIC "-//W3C//DTD SVG 1.1//EN" "http://www.w3.org/Graphics/SVG/1.1/DTD/svg11.dtd">
<svg width="509mm" height="109mm" viewBox="0 -109 509 109" xmlns="http://www.w3.org/2000/svg" version="1.1">
<title>OpenSCAD Model</title>
<path d="
M 502.003,-0.225649 L 503.905,-0.89128 L 505.611,-1.96352 L 507.036,-3.38859 L 508.109,-5.09505 L 508.774,-6.99731
 L 509,-9 L 509,-100 L 508.774,-102.003 L 508.109,-103.905 L 507.036,-105.611 L 505.611,-107.036
 L 503.905,-108.109 L 502.003,-108.774 L 500,-109 L 9,-109 L 6.99731,-108.774 L 5.09505,-108.109
 L 3.38859,-107.036 L 1.96352,-105.611 L 0.89128,-103.905 L 0.225649,-102.003 L 0,-100 L 0,-9
 L 0.225649,-6.99731 L 0.89128,-5.09505 L 1.96352,-3.38859 L 3.38859,-1.96352 L 5.09505,-0.89128 L 6.99731,-0.225649
 L 9,-0 L 500,-0 z
M 30,-78.8 L 30,-81.8 L 160,-81.8 L 160,-78.8 z
M 492.059,-47.2556 L 490.25,-48.0048 L 488.697,-49.1967 L 487.505,-50.75 L 486.756,-52.5589 L 486.5,-54.5
 L 486.756,-56.4411 L 487.505,-58.25 L 488.697,-59.8033 L 490.25,-60.9952 L 492.059,-61.7444 L 494,-62
 L 495.941,-61.7444 L 497.75,-60.9952 L 499.303,-59.8033 L 500.495,-58.25 L 501.244,-56.4411 L 501.5,-54.5
 L 501.244,-52.5589 L 500.495,-50.75 L 499.303,-49.1967 L 497.75,-48.0048 L 495.941,-47.2556 L 494,-47
 z
" stroke="black" fill="lightgray" stroke-width="0.5"/>
</svg>
